<svg width="29" height="33" viewBox="0 0 29 33" fill="none" xmlns="http://www.w3.org/2000/svg">
<path d="M28.3201 23.3507C27.0749 22.0127 24.7449 19.9998 24.7449 13.4062C24.7449 8.39824 21.2335 4.38926 16.4988 3.4057V2.0625C16.4988 0.923613 15.5758 0 14.4375 0C13.2993 0 12.3763 0.923613 12.3763 2.0625V3.4057C7.64161 4.38926 4.1302 8.39824 4.1302 13.4062C4.1302 19.9998 1.80022 22.0127 0.554986 23.3507C0.168267 23.7664 -0.00317809 24.2634 4.45621e-05 24.75C0.00713441 25.807 0.836646 26.8125 2.06899 26.8125H26.8061C28.0384 26.8125 28.8686 25.807 28.875 24.75C28.8783 24.2634 28.7068 23.7658 28.3201 23.3507ZM4.35256 23.7188C5.72026 21.916 7.21557 18.9279 7.22266 13.4436C7.22266 13.4307 7.21879 13.4191 7.21879 13.4062C7.21879 9.41918 10.4505 6.1875 14.4375 6.1875C18.4246 6.1875 21.6563 9.41918 21.6563 13.4062C21.6563 13.4191 21.6524 13.4307 21.6524 13.4436C21.6595 18.9286 23.1548 21.9166 24.5225 23.7188H4.35256ZM14.4375 33C16.714 33 18.5606 31.1534 18.5606 28.875H10.3145C10.3145 31.1534 12.1611 33 14.4375 33Z" fill="black"/>
</svg>
